<?xml version="1.0" encoding="utf-8"?>
<!-- Generator: Adobe Illustrator 14.0.0, SVG Export Plug-In . SVG Version: 6.00 Build 43363)  -->
<!DOCTYPE svg PUBLIC "-//W3C//DTD SVG 1.1//EN" "http://www.w3.org/Graphics/SVG/1.1/DTD/svg11.dtd">
<svg version="1.1" xmlns="http://www.w3.org/2000/svg" xmlns:xlink="http://www.w3.org/1999/xlink" x="0px" y="0px"
	 width="162.583px" height="169px" viewBox="0 0 162.583 169" enable-background="new 0 0 162.583 169" xml:space="preserve">
<g id="Layer_3">
</g>
<g id="Layer_1">
	<g>
		<g id="XMLID_1_">
			<g>
				<path fill="#FFFFFF" d="M98.83,60.24c-6.68,6.01-13.56,12.75-20.59,18.56c-3.18,2.63-7.7,5.84-9.85,10.36
					c-0.02,0.04-0.04,0.09-0.06,0.13c0.45-1.47,1.2-2.96,2.37-4.47c2.95-3.81,7.92-7.22,11.93-10.83
					c9.37-8.44,20.12-18.17,29.63-26.86c0.13,0.09,0.25,0.18,0.37,0.27C107.96,51.74,103.37,56.16,98.83,60.24z"/>
				<path fill="#FFFFFF" d="M134.6,27.02c0.881-0.83,1.761-1.67,2.641-2.52c0.5-0.59,1.18-0.78,1.58-1.59
					c0.069,0.06,0.149,0.12,0.22,0.19c-1.08,1.03-2.24,2.14-3.33,3.15c-0.31,0.29-0.65,0.58-0.97,0.87c0,0-0.01,0-0.01,0.01
					C134.69,27.09,134.64,27.06,134.6,27.02z"/>
				<path fill="#FFFFFF" d="M120.59,40.09c-0.46,0.39-0.81,0.84-1.26,1.23c-0.95,0.84-1.9,1.68-2.84,2.54
					c-0.12-0.1-0.24-0.19-0.37-0.28c0.61-0.56,1.21-1.11,1.8-1.65c0.51-0.59,1.18-0.78,1.59-1.59c1.05-0.79,2.07-1.65,3.07-2.54
					c0.11,0.09,0.22,0.18,0.33,0.27C122.14,38.77,121.37,39.44,120.59,40.09z"/>
				<path fill="#4DC9FF" d="M36.05,65.72c10.41-26.64,40.55-39.85,67.2-29.45c4.73,1.85,9.04,4.33,12.87,7.31
					c-1.25,1.16-2.54,2.34-3.86,3.55c-3.27-2.44-6.91-4.5-10.89-6.05C77.38,31.71,50.23,43.6,40.86,67.6
					c-3.29,8.4-3.96,17.2-2.41,25.48l-5.03,1.13C31.65,84.96,32.38,75.12,36.05,65.72z"/>
				<path fill="#4DC9FF" d="M127.77,33.13c-1.14,0.97-2.26,2.01-3.38,3.03c-4.85-3.91-10.359-7.15-16.45-9.54
					c-32.23-12.59-68.7,3.39-81.29,35.63c-8.33,21.33-4.14,44.51,8.99,61.4l-4.85,3.19c-14.11-18.42-18.57-43.56-9.53-66.7
					c13.75-35.21,53.58-52.66,88.79-38.91c6.94,2.7,13.17,6.44,18.63,10.95c-0.1,0.08-0.199,0.16-0.3,0.24
					C128.24,32.8,128,32.97,127.77,33.13z"/>
				<path fill="#FFFFFF" d="M116.12,43.58c0.13,0.09,0.25,0.18,0.37,0.28c-1.3,1.17-2.58,2.35-3.86,3.54
					c-0.12-0.09-0.24-0.18-0.37-0.27C113.58,45.92,114.87,44.74,116.12,43.58z"/>
				<path fill="#FFFFFF" d="M36.89,125.1c1.6-1.13,3.79-1.35,6.7-0.84c8.27-7.3,16.4-14.9,24.66-22.21
					c0.35-0.32,0.71-0.63,1.06-0.94c-1.06-3.6-2.27-7.6-0.98-11.82c0.02-0.04,0.04-0.09,0.06-0.13c2.15-4.52,6.67-7.73,9.85-10.36
					c7.03-5.81,13.91-12.55,20.59-18.56c4.54-4.08,9.13-8.5,13.8-12.84c1.28-1.19,2.561-2.37,3.86-3.54
					c0.939-0.86,1.89-1.7,2.84-2.54c0.45-0.39,0.8-0.84,1.26-1.23c0.78-0.65,1.55-1.32,2.32-2.02c-0.11-0.09-0.22-0.18-0.33-0.27
					c0.61-0.54,1.21-1.09,1.81-1.64c0.25,0.19,0.5,0.39,0.75,0.6c1.431-1.28,2.86-2.62,4.29-3.95c-0.25-0.21-0.5-0.42-0.75-0.63
					c2.03-1.59,3.99-3.35,5.92-5.16c0.04,0.04,0.091,0.07,0.131,0.11c0-0.01,0.01-0.01,0.01-0.01c0.319-0.29,0.66-0.58,0.97-0.87
					c1.09-1.01,2.25-2.12,3.33-3.15c1.91,1.57,2.87,3.57,5.01,5.06c-19.27,17.6-40.17,36.61-60.63,55.04
					c-2.77,2.5-7.28,5.54-8.26,8.8c-0.12,0.38-0.19,0.78-0.21,1.19c-0.12,0.27-0.22,0.55-0.31,0.85c-0.72,2.48,0.52,4.99,1.71,6.47
					c1.49,1.85,4.1,3.61,6.6,3.2c4-0.64,8.12-4.59,11.17-7.48c1.73-1.65,3.33-3.36,5.02-5.03c4.92-4.88,10.38-9.41,15.44-14.22
					c4.07-3.87,8.24-7.68,12.41-11.45c1.34-1.21,2.67-2.41,4-3.61c1.41-1.27,2.819-2.54,4.22-3.8c0.79-0.7,1.56-1.41,2.34-2.12
					c1.42-1.29,2.83-2.58,4.24-3.88c2.26-2.08,4.52-4.15,6.78-6.22c0-0.01,0.01-0.01,0.02-0.02c-0.18-0.31-0.37-0.61-0.56-0.91
					c2.04-1.83,4.09-3.66,6.14-5.48c1.55,1.82,3.17,3.63,4.84,5.41c-11.899,10.74-23.74,21.59-35.68,32.23
					c-7.8,7.29-17.88,16.18-26.71,24.03c-6.06,5.39-11.91,11.39-22.08,5.21c-8.64,7.4-16.92,15.62-25.61,22.87
					c-0.46,2.29,0.16,3.22-0.87,5.38c-4.75,9.93-19.46-0.21-12.14-8.64C36.22,125.64,36.54,125.35,36.89,125.1z"/>
				<path fill="#FFFFFF" d="M81.54,101.52c5.34,1.26,15.52-10.46,19.11-13.7c16.03-14.45,31.62-28.74,47.38-42.85
					c0.189,0.3,0.38,0.6,0.56,0.91c-0.01,0.01-0.02,0.01-0.02,0.02c-2.261,2.07-4.521,4.14-6.78,6.22c-1.41,1.3-2.82,2.59-4.24,3.88
					c-0.78,0.71-1.55,1.42-2.34,2.12c-1.4,1.26-2.81,2.53-4.22,3.8c-1.33,1.2-2.66,2.4-4,3.61c-4.17,3.77-8.34,7.58-12.41,11.45
					c-5.06,4.81-10.52,9.34-15.44,14.22c-1.69,1.67-3.29,3.38-5.02,5.03c-3.05,2.89-7.17,6.84-11.17,7.48
					c-2.5,0.41-5.11-1.35-6.6-3.2c-1.19-1.48-2.43-3.99-1.71-6.47c0.09-0.3,0.19-0.58,0.31-0.85
					C74.74,96.6,77.61,100.59,81.54,101.52z"/>
				<path fill="#4DC9FF" d="M156.18,110.58c2.141,0.09,4.271,0.18,6.4,0.27c-7.16,21.3-22.92,39.63-45.08,49.34
					c-41.68,18.27-90.46-0.78-108.73-42.47C-9.49,76.04,9.56,27.26,51.24,9c30.42-13.34,64.609-6.77,87.97,13.94
					c-0.06,0.05-0.11,0.11-0.17,0.16c-0.07-0.07-0.15-0.13-0.22-0.19c-0.4,0.81-1.08,1-1.58,1.59c-0.88,0.85-1.76,1.69-2.641,2.52
					C112.99,8.22,81.62,2.35,53.7,14.59C15.1,31.51-2.54,76.67,14.37,115.27c16.92,38.6,62.08,56.24,100.68,39.32
					C134.98,145.86,149.3,129.58,156.18,110.58z"/>
				<path fill="#FFFFFF" d="M128.68,32.18c0.25,0.21,0.5,0.42,0.75,0.63c-1.43,1.33-2.859,2.67-4.29,3.95
					c-0.25-0.21-0.5-0.41-0.75-0.6c1.12-1.02,2.24-2.06,3.38-3.03c0.23-0.16,0.471-0.33,0.61-0.71
					C128.48,32.34,128.58,32.26,128.68,32.18z"/>
			</g>
			<g>
			</g>
		</g>
	</g>
	<g id="Layer_2">
	</g>
</g>
</svg>
